HIERARCHY
ROOT root
{
	OFFSET 0.000000 0.000000 0.000000
	CHANNELS 6 Xposition Yposition Zposition Zrotation Yrotation Xrotation
	JOINT lhip
	{
		OFFSET 0.058581 -0.082280 -0.017664
		CHANNELS 3 Zrotation Yrotation Xrotation
		JOINT lknee
		{
			OFFSET 0.043451 -0.386469 0.008037
			CHANNELS 3 Zrotation Yrotation Xrotation
			JOINT lankle
			{
				OFFSET -0.014790 -0.426874 -0.037428
				CHANNELS 3 Zrotation Yrotation Xrotation
				JOINT ltoe
				{
					OFFSET 0.041054 -0.060286 0.122042
					CHANNELS 3 Zrotation Yrotation Xrotation
					End Site
					{
						OFFSET 0.000000 0.000000 0.000000
					}
				}
			}
		}
	}
	JOINT rhip
	{
		OFFSET -0.060310 -0.090513 -0.013543
		CHANNELS 3 Zrotation Yrotation Xrotation
		JOINT rknee
		{
			OFFSET -0.043257 -0.383688 -0.004843
			CHANNELS 3 Zrotation Yrotation Xrotation
			JOINT rankle
			{
				OFFSET 0.019056 -0.420046 -0.034562
				CHANNELS 3 Zrotation Yrotation Xrotation
				JOINT rtoe
				{
					OFFSET -0.034840 -0.062106 0.130323
					CHANNELS 3 Zrotation Yrotation Xrotation
					End Site
					{
						OFFSET 0.000000 0.000000 0.000000
					}
				}
			}
		}
	}
	JOINT lowerback
	{
		OFFSET 0.004439 0.124404 -0.038385
		CHANNELS 3 Zrotation Yrotation Xrotation
		JOINT upperback
		{
			OFFSET 0.004488 0.137956 0.026820
			CHANNELS 3 Zrotation Yrotation Xrotation
			JOINT chest
			{
				OFFSET -0.002265 0.056032 0.002855
				CHANNELS 3 Zrotation Yrotation Xrotation
				JOINT lowerneck
				{
					OFFSET -0.013390 0.211636 -0.033468
					CHANNELS 3 Zrotation Yrotation Xrotation
					JOINT upperneck
					{
						OFFSET 0.010113 0.088937 0.050410
						CHANNELS 3 Zrotation Yrotation Xrotation
						End Site
						{
							OFFSET 0.000000 0.000000 0.000000
						}
					}
				}
				JOINT lclavicle
				{
					OFFSET 0.071702 0.114000 -0.018898
					CHANNELS 3 Zrotation Yrotation Xrotation
					JOINT lshoulder
					{
						OFFSET 0.122921 0.045205 -0.019046
						CHANNELS 3 Zrotation Yrotation Xrotation
						JOINT lelbow
						{
							OFFSET 0.255332 -0.015649 -0.022946
							CHANNELS 3 Zrotation Yrotation Xrotation
							JOINT lwrist
							{
								OFFSET 0.265709 0.012698 -0.007375
								CHANNELS 3 Zrotation Yrotation Xrotation
								End Site
								{
									OFFSET 0.000000 0.000000 0.000000
								}
							}
						}
					}
				}
				JOINT rclavicle
				{
					OFFSET -0.082954 0.112472 -0.023707
					CHANNELS 3 Zrotation Yrotation Xrotation
					JOINT rshoulder
					{
						OFFSET -0.113228 0.046853 -0.008472
						CHANNELS 3 Zrotation Yrotation Xrotation
						JOINT relbow
						{
							OFFSET -0.260127 -0.014369 -0.031269
							CHANNELS 3 Zrotation Yrotation Xrotation
							JOINT rwrist
							{
								OFFSET -0.269108 0.006794 -0.006027
								CHANNELS 3 Zrotation Yrotation Xrotation
								End Site
								{
									OFFSET 0.000000 0.000000 0.000000
								}
							}
						}
					}
				}
			}
		}
	}
}
MOTION
Frames: 7
Frame Time: 0.033333
0.951664 0.539210 0.862958 89.358984 1.142515 80.404436 8.736645 0.415984 -17.690788 -12.062338 1.602430 57.610753 5.818720 3.967735 -33.797556 0.000000 -0.000000 0.000000 -7.869295 -4.135639 -19.033997 2.500323 -5.988953 61.053575 -4.423303 -3.669414 -34.046832 0.000000 -0.000000 0.000000 0.334891 1.058391 12.451728 3.275612 -3.308504 4.124132 0.232417 -0.815122 -5.065978 2.547086 8.906926 -14.385736 -3.475134 0.844266 12.620996 -14.399149 -21.422761 -6.760422 -31.271459 -26.121815 -4.420257 85.290951 -56.343512 -56.005963 -24.063326 -11.493453 1.917827 12.348043 23.952613 -5.429795 20.536809 34.932822 -9.612717 -63.268453 55.677696 -36.945099 39.264192 10.073304 -4.846481 
0.952288 0.538297 0.862979 89.277935 1.157293 80.534043 8.845796 0.716638 -17.829866 -12.218553 1.534540 57.830311 6.182173 3.939277 -33.946020 0.000000 -0.000000 0.000000 -7.679270 -4.203045 -18.818776 3.030206 -5.528617 60.628953 -4.323113 -4.387427 -33.834086 0.000000 -0.000000 0.000000 0.352797 0.983798 12.228625 3.139665 -3.318889 4.301146 0.298745 -0.734249 -5.029313 2.227453 8.479895 -14.815376 -3.147838 1.209336 12.896332 -13.897304 -21.783726 -6.682312 -31.605339 -25.934537 -4.560092 85.877340 -56.146797 -55.963128 -23.913594 -11.272149 1.360062 12.142974 24.522386 -5.286978 20.580294 34.590000 -9.758260 -63.313075 55.488742 -37.326180 39.802066 9.904547 -4.745437 
0.952527 0.538149 0.862861 89.310528 1.146985 80.573328 8.872122 0.796929 -17.900266 -12.248194 1.531996 57.890121 6.292486 3.863895 -33.997520 0.000000 -0.000000 0.000000 -7.616728 -4.263892 -18.761440 3.116063 -5.413220 60.523343 -4.306951 -4.577528 -33.818191 0.000000 -0.000000 0.000000 0.342781 0.960371 12.231535 3.116830 -3.346916 4.271306 0.306315 -0.734933 -4.946729 2.094280 8.422051 -15.079621 -3.106558 1.274245 12.981749 -13.859109 -21.842809 -6.613140 -31.756240 -26.066727 -4.554827 85.804031 -56.164586 -55.810084 -23.752826 -11.165566 1.389229 12.308824 24.720714 -5.090431 20.422930 34.638473 -9.860554 -63.073582 55.366531 -37.335120 39.781312 9.817238 -4.593533 
0.952770 0.538089 0.862871 89.351649 1.139961 80.597905 8.886861 0.887199 -17.914887 -12.251437 1.500095 57.870130 6.324520 3.753315 -33.995095 0.000000 -0.000000 0.000000 -7.561404 -4.355760 -18.697601 3.084448 -5.343319 60.417158 -4.302738 -4.614483 -33.812116 0.000000 -0.000000 0.000000 0.342951 0.965105 12.376733 3.080800 -3.366111 4.173169 0.335521 -0.722321 -4.938053 1.978532 8.390950 -15.332269 -3.064282 1.310032 13.021252 -13.849677 -21.966288 -6.553161 -31.975024 -26.102343 -4.516475 85.776309 -56.170751 -55.635451 -23.637455 -11.108562 1.520274 12.383456 24.869952 -5.034704 20.455681 34.579098 -9.930744 -62.917843 55.359134 -37.324522 39.745643 9.817447 -4.575116 
0.952853 0.538069 0.862957 89.375396 1.143637 80.622657 8.902468 0.930139 -17.928600 -12.250706 1.486003 57.841167 6.327488 3.694653 -33.975372 0.000000 -0.000000 0.000000 -7.535768 -4.398040 -18.677676 3.063354 -5.327694 60.353793 -4.301620 -4.608424 -33.784617 0.000000 -0.000000 0.000000 0.355166 0.964018 12.457935 3.060500 -3.373449 4.128798 0.346240 -0.710408 -4.953422 1.919950 8.377785 -15.444950 -3.033473 1.336606 13.002923 -13.863993 -22.037244 -6.509417 -32.044478 -26.088524 -4.509257 85.757955 -56.171894 -55.583507 -23.609426 -11.115082 1.564554 12.416662 24.942787 -4.994293 20.436571 34.528059 -9.990202 -62.894785 55.383080 -37.357486 39.680340 9.806347 -4.524240 
0.952888 0.538069 0.863057 89.407548 1.155140 80.663851 8.929745 0.958864 -17.965139 -12.255147 1.478938 57.809560 6.328501 3.637032 -33.949420 0.000000 -0.000000 0.000000 -7.513273 -4.440452 -18.674150 3.041787 -5.337583 60.282809 -4.297258 -4.591417 -33.747882 0.000000 -0.000000 0.000000 0.378770 0.957645 12.551174 3.040642 -3.382275 4.071324 0.356797 -0.696407 -4.979002 1.853472 8.373536 -15.552943 -3.006533 1.394785 12.946016 -13.869195 -22.101630 -6.456348 -32.117755 -26.052773 -4.509532 85.724403 -56.180947 -55.518470 -23.547186 -11.136659 1.600996 12.417791 25.025184 -4.956296 20.406747 34.484039 -10.068449 -62.878033 55.387286 -37.399719 39.619590 9.810497 -4.472666 
0.952985 0.538016 0.863128 89.400832 1.158434 80.691610 8.955800 1.010180 -17.970531 -12.263498 1.468886 57.780295 6.320724 3.586957 -33.946809 0.000000 -0.000000 0.000000 -7.488842 -4.485472 -18.660716 3.006004 -5.320600 60.219811 -4.277854 -4.539443 -33.727576 0.000000 -0.000000 0.000000 0.393065 0.961717 12.656138 3.016257 -3.375957 4.014273 0.370518 -0.693575 -4.991808 1.805576 8.369039 -15.643948 -2.994216 1.451851 12.887683 -13.867923 -22.130215 -6.437957 -32.158443 -26.013537 -4.531814 85.766375 -56.176061 -55.486792 -23.504548 -11.135922 1.633571 12.387917 25.089965 -4.955472 20.381601 34.491098 -10.139479 -62.892426 55.371186 -37.442224 39.588884 9.812988 -4.480996 
